<?xml version="1.0" standalone="no"?>
<!DOCTYPE svg PUBLIC "-//W3C//DTD SVG 20010904//EN"
 "http://www.w3.org/TR/2001/REC-SVG-20010904/DTD/svg10.dtd">
<svg version="1.0" xmlns="http://www.w3.org/2000/svg"
 width="512.000000pt" height="512.000000pt" viewBox="0 0 512.000000 512.000000"
 preserveAspectRatio="xMidYMid meet">
<metadata>
Created by potrace 1.11, written by Peter Selinger 2001-2013
</metadata>
<g transform="translate(0.000000,512.000000) scale(0.100000,-0.100000)"
fill="#000000" stroke="none">
<path d="M321 4842 c-19 -9 -43 -33 -53 -52 -17 -33 -18 -120 -18 -2238 0
-2470 -7 -2252 74 -2292 42 -20 47 -20 2236 -20 2189 0 2194 0 2236 20 81 40
74 -178 74 2292 0 2118 -1 2205 -18 2238 -10 19 -34 43 -53 52 -32 17 -159 18
-2239 18 -2080 0 -2207 -1 -2239 -18z m3381 -1156 c96 -19 149 -40 230 -93 81
-53 142 -118 268 -288 54 -71 123 -154 154 -184 31 -29 56 -60 56 -68 0 -8
-29 -27 -67 -45 -88 -39 -179 -104 -236 -168 -60 -66 -129 -209 -212 -440
-130 -358 -235 -541 -398 -696 -153 -145 -312 -225 -549 -275 -147 -31 -367
-32 -491 -1 -336 83 -567 265 -924 727 -118 153 -229 261 -356 346 -101 68
-258 149 -385 199 l-83 33 19 21 c11 12 151 170 312 351 161 182 305 343 320
358 l27 29 57 -108 c83 -156 169 -277 266 -374 129 -127 249 -191 401 -211
148 -20 344 20 479 98 99 58 224 189 295 308 121 206 187 292 280 362 152 116
339 157 537 119z"/>
<path d="M3757 3302 c-33 -37 -7 -112 39 -112 64 0 93 87 40 122 -20 14 -63 8
-79 -10z"/>
</g>
</svg>
